<?xml version="1.0" encoding="utf-8"?>
<!-- Generator: Adobe Illustrator 28.0.0, SVG Export Plug-In . SVG Version: 6.00 Build 0)  -->
<svg version="1.1" id="Слой_11" xmlns="http://www.w3.org/2000/svg" xmlns:xlink="http://www.w3.org/1999/xlink" x="0px"
	 y="0px" viewBox="0 0 3000 3000" style="enable-background:new 0 0 3000 3000;" xml:space="preserve">
<style type="text/css">
	.st0{fill:#0B39A0;}
	.st1{fill:#D82149;}
	.st2{fill:#FFFFFF;}
</style>
<g>
	<g>
		<g>
			<path class="st0" d="M-1817.96,308.4c3.58,9.91,7.03,20.63,15.19,27.91c6.36,5.67,12.69,6.83,18.92,3.56
				c3.41-1.79,6.26-4.89,8.5-9.3c2.24-4.41,3.44-9.21,3.55-14.41c0.11-4.93-0.63-8.79-2.19-11.59c-1.56-2.8-3.99-4.71-7.21-5.77
				c-6.5-2.36-9.65-3.56-15.74-6.06c-11.99-6.59-17.17-11.33-22.72-23c-6.31-13.27-6.31-30.78-6.49-45.95
				c-0.71-58.59,17.4-118.27,74.58-142.57c24.48-10.41,50.48-15.5,77.59-11.2c-9.05,35.63-17.85,71.32-26.4,107.07
				c-5.7-9.39-11.47-19.21-21.49-24.65c-8.07-4.38-16.18-4.82-24.21-1.16c-4.13,1.88-7.43,4.86-9.94,8.93
				c-2.52,4.08-3.81,8.51-3.92,13.3c-0.15,6.29,1.28,10.62,4.35,12.96c3.07,2.34,10.47,4.91,22.83,7.71
				c10.56,2.39,21.49,4.76,31.06,10.18c7.55,4.28,13.73,11.22,18.01,20.66c5.45,12.02,5.94,25.18,5.72,37.98
				c-1.05,61.41-36.74,119.04-92.25,146.71c-17.35,8.65-41.1,19.97-61.08,11.02C-1827.2,383.25-1822.75,345.8-1817.96,308.4z"/>
			<path class="st0" d="M-1509.92,3.36c41.86-10.08,83.99-18.36,126.55-24.92c-1.58,37.15-3.16,74.29-4.74,111.44
				c-1.1,23.58-1.53,48.1-6.07,70.75c-3.35,16.72-9.34,33.1-16.84,48.27c-8.51,17.2-20.07,33.3-33.43,47.21
				c-13.31,13.86-28.94,26.49-45.24,36.84c-14.85,9.43-31.34,17.94-48.33,22.68c-18.2,5.08-36.99,7.14-56.13,3.38
				c-15.52-3.05-29.65-12.38-38.56-25.46c-9.47-13.89-14.47-30.93-16.69-47.29c-3.83-28.27-2.41-57.58-1.4-86.21
				c1.53-38.62,3.07-77.24,4.6-115.86c35.36-12.4,71.05-23.49,107.2-33.37c-2.12,47.06-4.24,94.12-6.35,141.18
				c-0.56,12.38-0.04,21,1.56,25.86c1.6,4.86,5,6.53,10.26,5.06c6.28-1.76,10.81-6.07,13-12.71c3.96-12.02,4.36-26.15,4.83-38.93
				C-1513.78,88.64-1511.85,46-1509.92,3.36z"/>
			<path class="st0" d="M-1339.14,269.21c3.93-99.32,7.86-198.65,11.79-297.97c46.94-4.86,93.91-7.5,141.09-8
				c37.17,0.09,76.31,0.36,112.34,10.59c21.19,6.02,40.22,19.38,52.88,36.59c13.94,18.94,20.58,39.45,21.19,63.1
				c0.67,26.03-9.97,52.02-30.71,69.01c-22.15,18.14-52.37,23.45-80.35,22.01c-27.27-1.4-51.94-13.57-74.97-27.47
				c-1.15,40.64-2.3,81.28-3.45,121.91C-1239.5,259.7-1289.35,263.08-1339.14,269.21z M-1180.11,27.17c-1.06,0-1.6,0-2.66,0.01
				c-0.61,21.45-1.21,42.9-1.82,64.35c0.81,0,1.21-0.01,2.02-0.01c3.35,0.14,5.03,0.22,8.38,0.39c10.56,0.18,21.81-1.84,30.27-8.39
				c7.25-5.61,10.96-13.86,11.18-24.58c0.24-11.62-3.07-20.15-9.76-24.52C-1153,27.57-1167.58,27.17-1180.11,27.17z"/>
			<path class="st0" d="M-836.89,230.46c32.83,9.13,65.25,19.32,97.39,30.65c0.5,25.52,0.99,51.03,1.49,76.55
				c-73.46-26.66-148.61-46.75-225.55-60.42c-0.23-99.15-0.47-198.29-0.7-297.44c74.8,12.06,148.19,29.63,220.3,52.86
				c0.5,25.52,0.99,51.03,1.49,76.55c-31.91-10.61-64.08-20.15-96.6-28.7c0.18,12.43,0.36,24.86,0.54,37.29
				c23.15,6.16,46.17,12.72,69,20c0.47,25.42,0.94,50.83,1.41,76.25c-22.96-7.43-46.04-14.3-69.32-20.68
				C-837.25,205.73-837.07,218.1-836.89,230.46z"/>
			<path class="st0" d="M-707.21,349.43c-2.04-102.13-4.09-204.26-6.13-306.38c30.14,10.77,59.9,22.38,89.34,34.93
				c17.67,7.81,36.15,15.53,51.89,26.88c8.93,6.44,15.01,15.58,20.1,24.69c6.33,11.33,10.24,25.07,12.74,38.08
				c2.84,14.79,4.57,29.95,4.64,44.82c0.08,19.49,0.32,47.21-14.25,63.27c16.9,52.73,21.78,108.5,24.02,163.53
				c-20.1-12.01-40.57-23.33-61.26-34.29c-0.02-1.14-0.02-1.72-0.04-2.86c-0.64-29.38-1.93-59.25-9.13-87.82
				c-3.7-14.71-9.9-32.69-24.32-40.25c-0.41-0.19-0.62-0.29-1.04-0.48c0.66,38.33,1.32,76.65,1.97,114.98
				C-647.76,374.5-677.26,361.51-707.21,349.43z M-621.5,142.49c-0.56-0.25-0.84-0.37-1.4-0.62c0.34,19.94,0.68,39.89,1.03,59.83
				c0.84,0.38,1.25,0.57,2.08,0.95c7.72,3.51,13.03,3.58,16.25,0.23c3.21-3.35,4.62-10.49,4.54-21.17
				C-599.12,165.95-605.68,148.68-621.5,142.49z"/>
		</g>
	</g>
	<g>
		<g>
			<path class="st0" d="M-1475.72,2672.38c-45.77-14.57-90.3-31.86-133.94-51.93c-1.83-118.8,21.61-236.27,24.73-354.72
				c29.27,13.74,58.93,26.26,89.31,37.36c16.41,5.82,33.35,11.26,48.82,19.28c11.8,6.12,21.46,15.76,27.91,27.26
				c9.47,16.89,11.48,37.62,11.3,56.19c-0.16,16.51-1.4,34.25-7.18,50.14c-4.43,12.17-12.02,23.37-21.17,32.73
				c9.08,15.5,17.59,31.59,22.78,48.76c5.35,17.68,6.71,37.19,6.1,55.53c-0.77,23.48-1.88,51.82-18.77,70.47
				C-1438.45,2677.39-1458.88,2678.27-1475.72,2672.38z M-1510.62,2344.53c-0.81-0.33-1.22-0.5-2.03-0.83
				c-1.22,24.19-2.77,48.36-4.33,72.53c0.84,0.35,1.25,0.53,2.09,0.88c8.59,3.61,15.03,3.08,19.13-1.34s6.44-13.63,7.16-26.37
				c0.56-9.94,0.53-21.31-3.98-30.33C-1495.74,2352.79-1501.94,2348.07-1510.62,2344.53z M-1520.31,2489.42
				c-0.57-0.23-0.86-0.35-1.42-0.58c-1.92,29.87-3.86,59.73-5.09,89.64c1.02,0.38,1.53,0.56,2.56,0.94
				c9.75,3.56,17.17,2.9,21.17-1.9c6.3-7.57,7.09-20.37,7.6-29.98c0.66-12.59,0.71-27.13-4.02-38.95
				C-1503.12,2499.57-1511.25,2492.97-1520.31,2489.42z"/>
			<path class="st0" d="M-1375.57,2698.15c-4.54-63.52-2.25-126.85-0.83-190.44c1.26-56.46,6.35-115.89-1.39-172.03
				c30.91,5.96,61.94,10.45,93.25,13.74c24.31,2.33,48.84,3.58,73.05,6.86c12.45,1.69,24.87,5.1,35.72,11.49
				c12.35,7.28,20.61,18.21,26.57,30.15c7.62,15.25,10.04,33.97,10.53,51.24c0.92,32.75-3.98,69.24-27.92,95.08
				c29.2,54.24,43.2,113.01,53.4,173.39c-38.33,1.73-76.52,1.63-114.83-0.33c-0.1-1.15-0.16-1.72-0.26-2.89
				c-3.19-33.33-6.49-68.11-16.91-99.32c-4.98-14.91-15.15-33.11-32.6-35.97c-0.54-0.07-0.81-0.1-1.35-0.16
				c-0.42,45.04,0.78,89.75,4.65,134.64C-1308.44,2709.9-1342.07,2704.78-1375.57,2698.15z M-1278.42,2405.81
				c-0.7-0.09-1.05-0.13-1.75-0.22c0.83,25.65,1.18,51.29,1.35,76.94c1.07,0.15,1.6,0.22,2.67,0.37c9.93,1.35,17.45-1.19,21.73-7.31
				c5.92-8.48,6.52-20.53,6.34-30.58C-1248.45,2425.54-1257.32,2408.04-1278.42,2405.81z"/>
			<path class="st0" d="M-998.05,2340.26c31.45-5.14,58.5,2.85,78.71,26.8c30.17,35.74,37.22,91.99,38.88,137.93
				c1.64,45.34-6.32,93.94-25.76,135.29c-15.54,33.03-41.67,61.16-79.42,67.85c-34,6.02-64.65-12.8-85.98-36.89
				c-33.84-38.23-38.99-94.68-39.08-143.77c-0.06-33.62,3.89-68.07,13.79-99.83c7.4-23.74,18.75-47.23,38.39-64.09
				C-1041.85,2349.23-1018.95,2343.68-998.05,2340.26z M-992.06,2472.48c-6.32,0.75-11.52,5.67-15.76,14.52
				c-4.88,10.19-6.16,21.91-5.97,32.36c0.17,9.53,1.39,20.69,7.03,29.54c4.49,7.04,9.99,9.92,16.52,9.04
				c6.67-0.9,12.09-5.23,16.29-13.19c5.08-9.61,6.06-21.04,5.82-30.99c-0.24-9.95-1.81-21.25-7.26-30.64
				C-979.92,2475.29-985.46,2471.69-992.06,2472.48z"/>
			<path class="st0" d="M-841.49,2536.63c6.04,9.58,15.52,17.91,23.73,22.38c5.69,3.1,18.23,9.52,26.46,6.22
				c4.22-1.69,7.6-4.86,9.96-9.58c2.36-4.73,3.3-11.25,3.23-14.24c-0.07-2.83-1.13-5.39-3.15-7.34c-2.02-1.96-5.07-3.47-9.17-4.39
				c-8.28-2.06-12.47-3.41-20.95-6.6c-15.32-4.95-27.64-17.16-34.74-31.08c-9.84-19.3-12.44-42.04-13.82-63.21
				c-2.11-32.41-3.65-72.09,14.66-101.4c13.71-21.93,37.87-34.19,61.23-42.52c21.89-7.81,45.63-14.73,69.36-10.21
				c-0.18,42.4-1.37,84.78-3.34,127.13c-5.49-13.85-12.95-28.33-23.75-38.5c-8.26-7.79-16.62-10.02-24.46-7.22
				c-4.04,1.44-7.14,4.45-9.28,9.1c-2.14,4.65-2.94,10.1-2.39,16.43c0.73,8.33,2.92,14.77,6.62,18.64
				c6.71,7.03,16.36,12.2,25.01,16.66c10.85,5.6,21.76,12.1,30.87,20.49c8.17,7.51,14.03,17.42,18.24,26.82
				c4.32,9.62,7.71,20.77,8.35,31.96c3.49,61.07-13.54,122.51-75.01,146.65c-30.59,12.01-60.37,15.3-93.05,8.45
				C-853.32,2612.41-848.45,2574.9-841.49,2536.63z"/>
		</g>
	</g>
	<path class="st0" d="M-225.36,1304.11c0,547.48-435.32,991.3-972.32,991.3S-2170,1851.59-2170,1304.11
		c0-183.23,48.76-354.85,133.77-502.1c169-292.74,481.27-489.2,838.55-489.2c323.76,0,610.57,161.33,787.29,409.44
		C-294,885.66-225.36,1086.71-225.36,1304.11z"/>
	<g>
		<path class="st1" d="M-803.03,1056.06c136.8-69.73,199.76-172.7,178.18-219.83c-19.65-42.93-117.44-57.04-229.46-26.93
			c-37.05-146-147.53-260.79-288.89-299.58c-207.79-57.01-366.4,82-378.03,92.57c-52.52,49.66-113.39,117.62-168.38,207.01
			c-113.42,184.36-143.15,364.45-151.87,469.57c-85.41,73.76-112.14,187.92-70.98,272.65c37.96,78.14,119.41,101.91,134.98,106.14
			C-1452.67,1457.12-1127.85,1256.59-803.03,1056.06z"/>
		<path class="st2" d="M-1554.25,1522.91c-52.83-38.79-121.35-40.99-170.03-6.73c-53.44,37.61-58.83,102.15-59.43,111.08
			c38.04,154.97,142.55,258.86,249.27,260.87c22.24,0.42,65.59-3.19,117.21-38.71c43.63,38.54,106.49,84.64,189.84,119.5
			c181.71,76,347.6,51.26,420.95,35.34c10.21-0.39,31.9-2.63,54.48-16.83c19.85-12.48,31.03-28.31,36.32-37.03
			c50.11-58.5,120.04-157.53,155.18-296.21c12.1-47.74,18.02-92.11,20.44-131.28c-12.32-14.59-24.63-29.17-36.95-43.76
			c64.33-48.08,86.14-134.75,54.48-203.65c-35.45-77.13-130-114.74-212.95-79.1c-14.67-51.83-41.1-118.86-90.79-185.13
			c-14.74-19.65-29.82-36.97-44.57-52.17c-35.47,4.17-74.9,10.99-117.21,21.88c-68.87,17.73-127.13,41.6-173.84,64.78
			c-76.37,66.49-154.33,133-233.9,199.46c-23.69,19.78-47.35,39.42-70.98,58.91c-16.86,12.67-79.69,63.05-90.79,148.11
			C-1561.18,1480-1558.36,1504.33-1554.25,1522.91z"/>
		<path class="st1" d="M-1139.9,1438.75c34.45,11.27,89.07,23.85,155.18,16.83c31.42-3.34,58.53-10.37,80.54-17.94
			c7.8,9.68,86.8,104.6,205.05,93.68c60.65-5.6,103.29-36.44,122.16-52.17c12.04-8.95,29.31-24.04,44.57-47.12
			c13.29-20.11,20.37-39.18,24.26-52.82c1.29,2.97,11.04,26.39-1.15,47.77c-5.06,8.86-12,14.07-16.51,16.83
			c1.41,8.41,4.39,32.67-8.25,58.91c-14.31,29.7-39.08,42.16-46.22,45.44c-0.64,4.57-4.77,30.8-28.06,47.12
			c-20.02,14.03-46.61,15.43-69.33,3.94c-3.71,4.14-27.37,29.71-66.03,29.72c-38.68,0.01-62.36-25.58-66.07-29.72
			c-3.27,4.47-25.3,33.56-64.35,36.45c-46.72,3.47-75.25-33.72-77.27-36.45c-46.16,22.46-100.63,17.06-140.63-14.04
			C-1135.31,1551.53-1154.39,1493.43-1139.9,1438.75z"/>
		<path class="st1" d="M-1554.25,1522.91c12.84,24.42,45.64,78.41,110.6,112.76c32.15,17,62.25,23.94,84.19,26.93
			c1.82-1.43,29.96-24.33,26.41-60.59c-2.77-28.35-22.92-44.37-26.41-47.05c5.89-2.36,17.39-7.97,26.41-20.27
			c16.79-22.89,10.88-49.73,9.9-53.86c-22.87-10.35-71-36.08-107.3-90.88c-21.62-32.64-31.5-64.2-36.32-85.83
			c-13.6,8.16-62.38,39.65-84.19,104.35C-1568.56,1460.68-1558.88,1505.7-1554.25,1522.91z"/>
		<path class="st1" d="M-1276.08,1191.85c-19.55-70,4.63-138.9,48.68-163.76c56.99-32.16,158.05,3.27,191.49,102.66
			c-6.29-4.19-80.75-51.95-160.13-16.83C-1245.62,1135.87-1268.97,1177.72-1276.08,1191.85z"/>
		<path class="st1" d="M-900.54,1087c2.77-12.77,7.92-30.76,18.16-50.49c11.26-21.72,19.62-37.82,33.02-38.71
			c19.14-1.27,33.93,29.48,34.53,30.76c-9.35-16.37-64.71-112.23-89-103.13C-931.29,935.72-903.2,1074.13-900.54,1087z"/>
	</g>
	<ellipse class="st2" cx="-1106.89" cy="723.47" rx="148.57" ry="151.47"/>
	<path class="st1" d="M-1141.55,822.76l-52.83-13.46c6.08-19.76,11.99-46.09,13.21-77.42c1.85-47.83-8.06-86.55-16.51-111.08
		c14.57,4.81,32.31,12.15,51.17,23.56c13.82,8.36,25.33,17.15,34.67,25.25c4.12-11.61,8.29-27.01,9.9-45.44
		c1.05-12.04,0.8-22.84,0-31.98c15.24,10.69,31.46,23.46,47.87,38.71c38.1,35.39,64.51,72.23,82.54,102.66
		c-7.7,14.03-15.41,28.05-23.11,42.08c-6.87-20.68-18.72-48.59-39.62-77.42c-14.04-19.36-28.64-34.29-41.27-45.44
		c1.38,13.07,1.92,29.07,0,47.12c-1.12,10.57-2.91,20.15-4.95,28.61c-8.8-3.93-17.61-7.85-26.41-11.78
		c-14.31-12.34-28.61-24.68-42.92-37.03c5.04,24.87,9.06,54.33,9.9,87.52C-1139.39,787.28-1140.12,805.88-1141.55,822.76z"/>
	<g>
		<g>
			<path class="st1" d="M-1026.48,1732.41c4.15,10.74,8.72,21.35,13.94,31.6c4.11,8.05,6.86,12.4,8.59,13.22
				c0.95,0.45,1.39-0.45,1.38-2.78c-0.01-2.33-0.47-5.61-1.41-9.89c-0.89-4.06-1.89-7.75-3.06-11c-1.16-3.26-2.53-6.26-4.13-8.95
				c-3.26-5.64-4.93-8.45-8.34-14.06c-6.61-10.66-12.19-21.99-16.7-33.66c-5.61-14.56-9.76-30.13-12.1-45.35
				c-4.22-27.48-9.16-83.93,32.73-86.2c12.71-0.69,24.69,5.16,32.7,15.02c-5.05,29.35-8.35,58.69-10.08,88.43
				c-2.17-11.26-4.78-22.79-9.49-33.2c-3.39-7.48-6.95-11.11-10.41-11.23c-1.78-0.06-3.18,1.17-4.16,3.7
				c-0.98,2.53-1.36,5.89-1.13,10.16c0.3,5.6,1.28,10.24,2.84,13.85c1.56,3.61,5.05,9.71,10.48,18.23
				c4.99,7.84,9.77,16.92,13.1,25.67c3.73,9.8,6.13,20.25,8.13,30.44c2.56,13.01,3.98,26.63,5,39.98
				c0.41,5.41,4.51,77.92-6.69,67.74c-6.33-5.75-11.25-16.81-16.35-25.18C-1012.27,1783.98-1020.2,1758.82-1026.48,1732.41z"/>
			<path class="st1" d="M-943.95,1867.06c-9.41-6.5-13.62-9.83-21.1-16.14c-8.8-94.31-13.01-189.41-5.08-283.92
				c12.09-0.59,24.18-1.18,36.27-1.77c3.49,20.06,6.7,40.17,9.85,60.29c6.44-20.75,13.3-41.32,20.61-61.78
				c12.22-0.6,24.44-1.2,36.66-1.81c-9.4,110.65-15.99,221.4-28.3,331.8c-10.14-4.46-20.1-8.98-29.7-14.54
				c3.18-50.91,6.08-101.84,8.87-152.77c-5.29,20.68-10.64,41.34-15.85,62.03c-3.26-22.42-6.55-44.84-9.99-67.24
				C-942.87,1769.82-943.58,1818.43-943.95,1867.06z"/>
			<path class="st1" d="M-838.48,1858.03c-3.81,16.52-7.73,33.02-11.89,49.45c-12.38-2.6-24.57-6.13-36.43-10.54
				c25.85-111.31,42.56-224.19,59.94-337.04c17.92-0.93,35.84-1.89,53.76-2.88c10.09,119.1,5.95,236.54-7.21,355.22
				c-11.45,0.55-22.43,0.59-33.89,0.15c1.14-17.15,2.24-34.3,3.28-51.45C-821.71,1860.28-827.23,1859.72-838.48,1858.03z
				 M-821.53,1776.48c5.88,0.42,8.8,0.58,14.59,0.8c1.08-32.38,1.42-64.7,1.03-97.09C-810.58,1712.38-815.61,1744.48-821.53,1776.48
				z"/>
			<path class="st1" d="M-747.9,1780.64c0.02,14.19-0.1,28.48,2.22,42.45c1.66,10.02,3.97,14.61,6.99,14.24
				c1.65-0.21,3.34-2.16,5.09-5.93c1.75-3.77,3.22-8.58,4.39-14.53c1.1-5.64,1.67-10.6,1.68-14.8c0.01-4.2-0.51-7.88-1.58-11.02
				c-2.11-6.6-3.23-9.97-5.55-16.86c-5.18-14.17-6.97-29.77-7.96-44.68c-1.38-20.75-0.69-41.76,0.48-62.43
				c1.6-28.34-1.85-117.22,43.02-119.38c15.03-0.72,24.78,8.38,34.37,18.58c-3.42,37.39-8.19,74.53-14.34,111.57
				c-0.97-13.67-1.9-27.42-6.28-40.41c-3.04-9.01-6.71-13.27-10.49-12.93c-1.95,0.17-3.58,1.99-4.91,5.49
				c-1.33,3.5-2.11,8.05-2.4,13.71c-0.38,7.43,0.01,13.47,1.23,17.96c1.21,4.5,4.25,11.9,8.94,21.58
				c4.24,8.75,8.05,19.32,9.72,29.08c2.05,11.99,2.04,24.4,1,36.5c-1.47,17.1-4.55,34.12-8.53,50.59
				c-6.98,28.88-21.47,103.61-58.54,112.68c-12.86,3.15-20.48-8.06-26.78-16.71C-765.61,1857.4-756.23,1819.16-747.9,1780.64z"/>
			<path class="st1" d="M-649.68,1774.34c-12.42,40.05-26.99,79.26-44.5,117.38c-6.76,2.8-10.71,4.34-19.55,7.26
				c40.05-112.77,62.24-229.02,60.55-348.89c12.46-0.74,24.93-1.48,37.39-2.22c-0.1,41.32-3.85,82.32-10.02,123.15
				c6.68-0.88,9.97-1.31,16.43-2.14c7.19-40.43,11.87-81.08,12.78-122.15c12.39-0.73,24.78-1.46,37.17-2.18
				c-9.3,121.04-49.89,236.81-115.78,338.53c-3.17,1.56-5.42,2.69-11.01,5.2c19.31-37.76,35.81-76.41,49.78-116.46
				C-641.54,1772.78-644.19,1773.29-649.68,1774.34z"/>
		</g>
	</g>
</g>
<g>
	<g>
		<g>
			<path class="st0" d="M896.04,484.4c3.58,9.91,7.03,20.63,15.19,27.91c6.36,5.67,12.69,6.83,18.92,3.56
				c3.41-1.79,6.26-4.89,8.5-9.3c2.24-4.41,3.44-9.21,3.55-14.41c0.11-4.93-0.63-8.79-2.19-11.59c-1.56-2.8-3.99-4.71-7.21-5.77
				c-6.5-2.36-9.65-3.56-15.74-6.06c-11.99-6.59-17.17-11.33-22.72-23c-6.31-13.27-6.31-30.78-6.49-45.95
				c-0.71-58.59,17.4-118.27,74.58-142.57c24.48-10.41,50.48-15.5,77.59-11.2c-9.05,35.63-17.85,71.32-26.4,107.07
				c-5.7-9.39-11.47-19.21-21.49-24.65c-8.07-4.38-16.18-4.82-24.21-1.16c-4.13,1.88-7.43,4.86-9.94,8.93
				c-2.52,4.08-3.81,8.51-3.92,13.3c-0.15,6.29,1.28,10.62,4.35,12.96c3.07,2.34,10.47,4.91,22.83,7.71
				c10.56,2.39,21.49,4.76,31.06,10.18c7.55,4.28,13.73,11.22,18.01,20.66c5.45,12.02,5.94,25.18,5.72,37.98
				c-1.05,61.41-36.74,119.04-92.25,146.71c-17.35,8.65-41.1,19.97-61.08,11.02C886.8,559.25,891.25,521.8,896.04,484.4z"/>
			<path class="st0" d="M1204.08,179.36c41.86-10.08,83.99-18.36,126.55-24.92c-1.58,37.15-3.16,74.29-4.74,111.44
				c-1.1,23.58-1.53,48.1-6.07,70.75c-3.35,16.72-9.34,33.1-16.84,48.27c-8.51,17.2-20.07,33.3-33.43,47.21
				c-13.31,13.86-28.94,26.49-45.24,36.84c-14.85,9.43-31.34,17.94-48.33,22.68c-18.2,5.08-36.99,7.14-56.13,3.38
				c-15.52-3.05-29.65-12.38-38.56-25.46c-9.47-13.89-14.47-30.93-16.69-47.29c-3.83-28.27-2.41-57.58-1.4-86.21
				c1.53-38.62,3.07-77.24,4.6-115.86c35.36-12.4,71.05-23.49,107.2-33.37c-2.12,47.06-4.24,94.12-6.35,141.18
				c-0.56,12.38-0.04,21,1.56,25.86c1.6,4.86,5,6.53,10.26,5.06c6.28-1.76,10.81-6.07,13-12.71c3.96-12.02,4.36-26.15,4.83-38.93
				C1200.22,264.64,1202.15,222,1204.08,179.36z"/>
			<path class="st0" d="M1374.86,445.21c3.93-99.32,7.86-198.65,11.79-297.97c46.94-4.86,93.91-7.5,141.09-8
				c37.17,0.09,76.31,0.36,112.34,10.59c21.19,6.02,40.22,19.38,52.88,36.59c13.94,18.94,20.58,39.45,21.19,63.1
				c0.67,26.03-9.97,52.02-30.71,69.01c-22.15,18.14-52.37,23.45-80.35,22.01c-27.27-1.4-51.94-13.57-74.97-27.47
				c-1.15,40.64-2.3,81.28-3.45,121.91C1474.5,435.7,1424.65,439.08,1374.86,445.21z M1533.89,203.17c-1.06,0-1.6,0-2.66,0.01
				c-0.61,21.45-1.21,42.9-1.82,64.35c0.81,0,1.21-0.01,2.02-0.01c3.35,0.14,5.03,0.22,8.38,0.39c10.56,0.18,21.81-1.84,30.27-8.39
				c7.25-5.61,10.96-13.86,11.18-24.58c0.24-11.62-3.07-20.15-9.76-24.52C1561,203.57,1546.42,203.17,1533.89,203.17z"/>
			<path class="st0" d="M1877.11,406.46c32.83,9.13,65.25,19.32,97.39,30.65c0.5,25.52,0.99,51.03,1.49,76.55
				c-73.46-26.66-148.61-46.75-225.55-60.42c-0.23-99.15-0.47-198.29-0.7-297.44c74.8,12.06,148.19,29.63,220.3,52.86
				c0.5,25.52,0.99,51.03,1.49,76.55c-31.91-10.61-64.08-20.15-96.6-28.7c0.18,12.43,0.36,24.86,0.54,37.29
				c23.15,6.16,46.17,12.72,69,20c0.47,25.42,0.94,50.83,1.41,76.25c-22.96-7.43-46.04-14.3-69.32-20.68
				C1876.75,381.73,1876.93,394.1,1877.11,406.46z"/>
			<path class="st0" d="M2006.79,525.43c-2.04-102.13-4.09-204.26-6.13-306.38c30.14,10.77,59.9,22.38,89.34,34.93
				c17.67,7.81,36.15,15.53,51.89,26.88c8.93,6.44,15.01,15.58,20.1,24.69c6.33,11.33,10.24,25.07,12.74,38.08
				c2.84,14.79,4.57,29.95,4.64,44.82c0.08,19.49,0.32,47.21-14.25,63.27c16.9,52.73,21.78,108.5,24.02,163.53
				c-20.1-12.01-40.57-23.33-61.26-34.29c-0.02-1.14-0.02-1.72-0.04-2.86c-0.64-29.38-1.93-59.25-9.13-87.82
				c-3.7-14.71-9.9-32.69-24.32-40.25c-0.41-0.19-0.62-0.29-1.04-0.48c0.66,38.33,1.32,76.65,1.97,114.98
				C2066.24,550.5,2036.74,537.51,2006.79,525.43z M2092.5,318.49c-0.56-0.25-0.84-0.37-1.4-0.62c0.34,19.94,0.68,39.89,1.03,59.83
				c0.84,0.38,1.25,0.57,2.08,0.95c7.72,3.51,13.03,3.58,16.25,0.23c3.21-3.35,4.62-10.49,4.54-21.17
				C2114.88,341.95,2108.32,324.68,2092.5,318.49z"/>
		</g>
	</g>
	<g>
		<g>
			<path class="st0" d="M1238.28,2848.38c-45.77-14.57-90.3-31.86-133.94-51.93c-1.83-118.8,21.61-236.27,24.73-354.72
				c29.27,13.74,58.93,26.26,89.31,37.36c16.41,5.82,33.35,11.26,48.82,19.28c11.8,6.12,21.46,15.76,27.91,27.26
				c9.47,16.89,11.48,37.62,11.3,56.19c-0.16,16.51-1.4,34.25-7.18,50.14c-4.43,12.17-12.02,23.37-21.17,32.73
				c9.08,15.5,17.59,31.59,22.78,48.76c5.35,17.68,6.71,37.19,6.1,55.53c-0.77,23.48-1.88,51.82-18.77,70.47
				C1275.55,2853.39,1255.12,2854.27,1238.28,2848.38z M1203.38,2520.53c-0.81-0.33-1.22-0.5-2.03-0.83
				c-1.22,24.19-2.77,48.36-4.33,72.53c0.84,0.35,1.25,0.53,2.09,0.88c8.59,3.61,15.03,3.08,19.13-1.34s6.44-13.63,7.16-26.37
				c0.56-9.94,0.53-21.31-3.98-30.33C1218.26,2528.79,1212.06,2524.07,1203.38,2520.53z M1193.69,2665.42
				c-0.57-0.23-0.86-0.35-1.42-0.58c-1.92,29.87-3.86,59.73-5.09,89.64c1.02,0.38,1.53,0.56,2.56,0.94
				c9.75,3.56,17.17,2.9,21.17-1.9c6.3-7.57,7.09-20.37,7.6-29.98c0.66-12.59,0.71-27.13-4.02-38.95
				C1210.88,2675.57,1202.75,2668.97,1193.69,2665.42z"/>
			<path class="st0" d="M1338.43,2874.15c-4.54-63.52-2.25-126.85-0.83-190.44c1.26-56.46,6.35-115.89-1.39-172.03
				c30.91,5.96,61.94,10.45,93.25,13.74c24.31,2.33,48.84,3.58,73.05,6.86c12.45,1.69,24.87,5.1,35.72,11.49
				c12.35,7.28,20.61,18.21,26.57,30.15c7.62,15.25,10.04,33.97,10.53,51.24c0.92,32.75-3.98,69.24-27.92,95.08
				c29.2,54.24,43.2,113.01,53.4,173.39c-38.33,1.73-76.52,1.63-114.83-0.33c-0.1-1.15-0.16-1.72-0.26-2.89
				c-3.19-33.33-6.49-68.11-16.91-99.32c-4.98-14.91-15.15-33.11-32.6-35.97c-0.54-0.07-0.81-0.1-1.35-0.16
				c-0.42,45.04,0.78,89.75,4.65,134.64C1405.56,2885.9,1371.93,2880.78,1338.43,2874.15z M1435.58,2581.81
				c-0.7-0.09-1.05-0.13-1.75-0.22c0.83,25.65,1.18,51.29,1.35,76.94c1.07,0.15,1.6,0.22,2.67,0.37c9.93,1.35,17.45-1.19,21.73-7.31
				c5.92-8.48,6.52-20.53,6.34-30.58C1465.55,2601.54,1456.68,2584.04,1435.58,2581.81z"/>
			<path class="st0" d="M1715.95,2516.26c31.45-5.14,58.5,2.85,78.71,26.8c30.17,35.74,37.22,91.99,38.88,137.93
				c1.64,45.34-6.31,93.94-25.76,135.29c-15.54,33.03-41.67,61.16-79.42,67.85c-34,6.02-64.65-12.8-85.98-36.89
				c-33.84-38.23-38.99-94.68-39.08-143.77c-0.06-33.62,3.89-68.07,13.79-99.83c7.4-23.74,18.75-47.23,38.39-64.09
				C1672.15,2525.23,1695.05,2519.68,1715.95,2516.26z M1721.94,2648.48c-6.32,0.75-11.52,5.67-15.76,14.52
				c-4.88,10.19-6.16,21.91-5.97,32.36c0.17,9.53,1.39,20.69,7.03,29.54c4.49,7.04,9.99,9.92,16.52,9.04
				c6.67-0.9,12.09-5.23,16.29-13.19c5.08-9.61,6.06-21.04,5.82-30.99c-0.24-9.95-1.81-21.25-7.26-30.64
				C1734.08,2651.29,1728.54,2647.69,1721.94,2648.48z"/>
			<path class="st0" d="M1872.51,2712.63c6.04,9.58,15.52,17.91,23.73,22.38c5.69,3.1,18.23,9.52,26.46,6.22
				c4.22-1.69,7.6-4.86,9.96-9.58c2.36-4.73,3.3-11.25,3.23-14.24c-0.07-2.83-1.13-5.39-3.15-7.34c-2.02-1.96-5.07-3.47-9.17-4.39
				c-8.28-2.06-12.47-3.41-20.95-6.6c-15.32-4.95-27.64-17.16-34.74-31.08c-9.84-19.3-12.44-42.04-13.82-63.21
				c-2.11-32.41-3.65-72.09,14.66-101.4c13.71-21.93,37.87-34.19,61.23-42.52c21.89-7.81,45.63-14.73,69.36-10.21
				c-0.18,42.4-1.37,84.78-3.34,127.13c-5.49-13.85-12.95-28.33-23.75-38.5c-8.26-7.79-16.62-10.02-24.46-7.22
				c-4.04,1.44-7.14,4.45-9.28,9.1c-2.14,4.65-2.94,10.1-2.39,16.43c0.73,8.33,2.92,14.77,6.62,18.64
				c6.71,7.03,16.36,12.2,25.01,16.66c10.85,5.6,21.76,12.11,30.87,20.49c8.17,7.51,14.03,17.42,18.24,26.82
				c4.32,9.62,7.71,20.77,8.35,31.96c3.49,61.07-13.54,122.51-75.01,146.65c-30.59,12.01-60.37,15.3-93.06,8.45
				C1860.68,2788.41,1865.55,2750.9,1872.51,2712.63z"/>
		</g>
	</g>
	<path class="st0" d="M2488.64,1480.11c0,547.48-435.32,991.3-972.32,991.3S544,2027.59,544,1480.11
		c0-183.23,48.76-354.85,133.77-502.1c169-292.74,481.27-489.2,838.55-489.2c323.76,0,610.57,161.33,787.29,409.44
		C2420,1061.66,2488.64,1262.71,2488.64,1480.11z"/>
	<g>
		<path class="st1" d="M1910.97,1232.06c136.8-69.73,199.76-172.7,178.18-219.83c-19.65-42.93-117.44-57.04-229.46-26.93
			c-37.05-146-147.53-260.79-288.89-299.58c-207.79-57.01-366.4,82-378.03,92.57c-52.52,49.66-113.39,117.62-168.38,207.01
			c-113.42,184.36-143.15,364.45-151.87,469.57c-85.41,73.76-112.14,187.92-70.98,272.65c37.96,78.14,119.41,101.91,134.98,106.14
			C1261.33,1633.12,1586.15,1432.59,1910.97,1232.06z"/>
		<path class="st2" d="M1159.75,1698.91c-52.83-38.79-121.35-40.99-170.03-6.73c-53.44,37.61-58.83,102.15-59.43,111.08
			c38.04,154.97,142.55,258.86,249.27,260.87c22.24,0.42,65.59-3.19,117.21-38.71c43.63,38.54,106.49,84.64,189.84,119.5
			c181.71,76,347.6,51.26,420.95,35.34c10.21-0.39,31.9-2.63,54.48-16.83c19.85-12.48,31.03-28.31,36.32-37.03
			c50.11-58.5,120.04-157.53,155.18-296.21c12.1-47.74,18.02-92.11,20.44-131.28c-12.32-14.59-24.63-29.17-36.95-43.76
			c64.33-48.08,86.14-134.75,54.48-203.65c-35.45-77.13-130-114.74-212.95-79.1c-14.67-51.83-41.1-118.86-90.79-185.13
			c-14.74-19.65-29.82-36.97-44.57-52.17c-35.47,4.17-74.9,10.99-117.21,21.88c-68.87,17.73-127.13,41.6-173.84,64.78
			c-76.37,66.49-154.33,133-233.9,199.46c-23.69,19.78-47.35,39.42-70.98,58.91c-16.86,12.67-79.69,63.05-90.79,148.11
			C1152.82,1656,1155.64,1680.33,1159.75,1698.91z"/>
		<path class="st1" d="M1574.1,1614.75c34.45,11.27,89.07,23.85,155.18,16.83c31.42-3.34,58.53-10.37,80.54-17.94
			c7.8,9.68,86.8,104.6,205.05,93.68c60.65-5.6,103.29-36.44,122.16-52.17c12.04-8.95,29.31-24.04,44.57-47.12
			c13.29-20.11,20.37-39.18,24.26-52.82c1.29,2.97,11.04,26.39-1.15,47.77c-5.06,8.86-12,14.07-16.51,16.83
			c1.42,8.41,4.39,32.67-8.25,58.91c-14.31,29.7-39.08,42.16-46.22,45.44c-0.64,4.57-4.77,30.8-28.06,47.12
			c-20.02,14.03-46.61,15.43-69.33,3.94c-3.71,4.14-27.37,29.71-66.03,29.72c-38.68,0.01-62.36-25.58-66.07-29.72
			c-3.27,4.47-25.3,33.56-64.35,36.45c-46.72,3.47-75.25-33.72-77.27-36.45c-46.16,22.46-100.63,17.06-140.63-14.04
			C1578.69,1727.53,1559.61,1669.43,1574.1,1614.75z"/>
		<path class="st1" d="M1159.75,1698.91c12.84,24.42,45.64,78.41,110.6,112.76c32.15,17,62.25,23.94,84.19,26.93
			c1.82-1.43,29.96-24.33,26.41-60.59c-2.77-28.35-22.92-44.37-26.41-47.05c5.89-2.36,17.39-7.97,26.41-20.27
			c16.79-22.89,10.88-49.73,9.9-53.86c-22.87-10.35-71-36.08-107.3-90.88c-21.62-32.64-31.5-64.2-36.32-85.83
			c-13.6,8.16-62.38,39.65-84.19,104.35C1145.44,1636.68,1155.12,1681.7,1159.75,1698.91z"/>
		<path class="st1" d="M1437.92,1367.85c-19.55-70,4.63-138.9,48.68-163.76c56.99-32.16,158.05,3.27,191.49,102.66
			c-6.29-4.19-80.75-51.95-160.13-16.83C1468.38,1311.87,1445.03,1353.72,1437.92,1367.85z"/>
		<path class="st1" d="M1813.46,1263c2.77-12.77,7.92-30.76,18.16-50.49c11.26-21.72,19.62-37.82,33.02-38.71
			c19.14-1.27,33.93,29.48,34.53,30.76c-9.35-16.37-64.71-112.23-89-103.13C1782.71,1111.72,1810.8,1250.13,1813.46,1263z"/>
	</g>
	<ellipse class="st2" cx="1607.11" cy="899.47" rx="148.57" ry="151.47"/>
	<path class="st1" d="M1572.45,998.76l-52.83-13.46c6.08-19.76,11.99-46.09,13.21-77.42c1.85-47.83-8.06-86.55-16.51-111.08
		c14.57,4.81,32.31,12.15,51.17,23.56c13.82,8.36,25.33,17.15,34.67,25.25c4.12-11.61,8.29-27.01,9.9-45.44
		c1.05-12.04,0.8-22.84,0-31.98c15.24,10.69,31.46,23.46,47.87,38.71c38.1,35.39,64.51,72.23,82.54,102.66
		c-7.7,14.03-15.41,28.05-23.11,42.08c-6.87-20.68-18.72-48.59-39.62-77.42c-14.04-19.36-28.64-34.29-41.27-45.44
		c1.38,13.07,1.92,29.07,0,47.12c-1.12,10.57-2.91,20.15-4.95,28.61c-8.8-3.93-17.61-7.85-26.41-11.78
		c-14.31-12.34-28.61-24.68-42.92-37.03c5.04,24.87,9.06,54.33,9.9,87.52C1574.61,963.28,1573.88,981.88,1572.45,998.76z"/>
	<g>
		<g>
			<path class="st1" d="M1687.52,1908.41c4.15,10.74,8.72,21.35,13.94,31.6c4.11,8.05,6.86,12.4,8.59,13.22
				c0.95,0.45,1.39-0.45,1.38-2.78c-0.01-2.33-0.47-5.61-1.41-9.89c-0.89-4.06-1.89-7.75-3.06-11c-1.16-3.26-2.53-6.26-4.13-8.95
				c-3.26-5.64-4.93-8.45-8.34-14.06c-6.61-10.66-12.19-21.99-16.7-33.66c-5.61-14.56-9.76-30.13-12.1-45.35
				c-4.22-27.48-9.16-83.93,32.73-86.2c12.71-0.69,24.69,5.16,32.7,15.02c-5.05,29.35-8.35,58.69-10.08,88.43
				c-2.17-11.26-4.78-22.79-9.49-33.2c-3.39-7.48-6.95-11.11-10.41-11.23c-1.78-0.06-3.18,1.17-4.16,3.7
				c-0.98,2.53-1.36,5.89-1.13,10.16c0.3,5.6,1.28,10.24,2.84,13.85c1.56,3.61,5.05,9.71,10.48,18.23
				c4.99,7.84,9.77,16.92,13.1,25.67c3.73,9.8,6.13,20.25,8.13,30.44c2.56,13.01,3.98,26.63,5,39.98
				c0.41,5.41,4.51,77.92-6.69,67.74c-6.33-5.75-11.25-16.81-16.35-25.18C1701.73,1959.98,1693.8,1934.82,1687.52,1908.41z"/>
			<path class="st1" d="M1770.05,2043.06c-9.41-6.5-13.62-9.83-21.1-16.14c-8.8-94.31-13.01-189.41-5.08-283.92
				c12.09-0.59,24.18-1.18,36.27-1.77c3.49,20.06,6.7,40.17,9.85,60.29c6.44-20.75,13.3-41.32,20.61-61.78
				c12.22-0.6,24.44-1.2,36.66-1.81c-9.4,110.65-15.99,221.4-28.3,331.8c-10.14-4.46-20.1-8.98-29.7-14.54
				c3.18-50.91,6.08-101.84,8.87-152.77c-5.29,20.68-10.64,41.34-15.85,62.03c-3.26-22.42-6.55-44.84-9.99-67.24
				C1771.13,1945.82,1770.42,1994.43,1770.05,2043.06z"/>
			<path class="st1" d="M1875.52,2034.03c-3.81,16.52-7.73,33.02-11.89,49.45c-12.38-2.6-24.57-6.13-36.43-10.54
				c25.85-111.31,42.56-224.19,59.94-337.04c17.92-0.93,35.84-1.89,53.76-2.88c10.09,119.1,5.95,236.54-7.21,355.22
				c-11.45,0.55-22.43,0.59-33.89,0.15c1.14-17.15,2.24-34.3,3.28-51.45C1892.29,2036.28,1886.77,2035.72,1875.52,2034.03z
				 M1892.47,1952.48c5.88,0.42,8.8,0.58,14.59,0.8c1.08-32.38,1.42-64.7,1.03-97.09
				C1903.42,1888.38,1898.39,1920.48,1892.47,1952.48z"/>
			<path class="st1" d="M1966.1,1956.64c0.02,14.19-0.1,28.48,2.22,42.45c1.66,10.02,3.97,14.61,6.99,14.24
				c1.65-0.21,3.34-2.16,5.09-5.93c1.75-3.77,3.22-8.58,4.39-14.53c1.1-5.64,1.67-10.6,1.68-14.8c0.01-4.2-0.51-7.88-1.58-11.02
				c-2.11-6.6-3.23-9.97-5.55-16.86c-5.18-14.17-6.97-29.77-7.96-44.68c-1.38-20.75-0.69-41.76,0.48-62.43
				c1.6-28.34-1.85-117.22,43.02-119.38c15.03-0.72,24.78,8.38,34.37,18.58c-3.42,37.39-8.19,74.53-14.34,111.57
				c-0.97-13.67-1.9-27.42-6.28-40.41c-3.04-9.01-6.71-13.27-10.49-12.93c-1.95,0.17-3.58,1.99-4.91,5.49
				c-1.33,3.5-2.11,8.05-2.4,13.71c-0.38,7.43,0.01,13.47,1.23,17.96c1.21,4.5,4.25,11.9,8.94,21.58
				c4.24,8.75,8.05,19.32,9.72,29.08c2.05,11.99,2.04,24.4,1,36.5c-1.47,17.1-4.55,34.12-8.53,50.59
				c-6.98,28.88-21.47,103.61-58.54,112.68c-12.86,3.15-20.48-8.06-26.78-16.71C1948.39,2033.4,1957.77,1995.16,1966.1,1956.64z"/>
			<path class="st1" d="M2064.32,1950.34c-12.42,40.05-26.99,79.26-44.5,117.37c-6.76,2.8-10.71,4.34-19.55,7.26
				c40.05-112.77,62.24-229.02,60.55-348.89c12.46-0.74,24.93-1.48,37.39-2.22c-0.1,41.32-3.85,82.32-10.02,123.15
				c6.68-0.88,9.97-1.31,16.43-2.14c7.19-40.43,11.87-81.08,12.78-122.15c12.39-0.73,24.78-1.46,37.17-2.18
				c-9.3,121.04-49.89,236.81-115.78,338.53c-3.17,1.56-5.42,2.69-11.01,5.2c19.31-37.76,35.81-76.41,49.78-116.46
				C2072.46,1948.78,2069.81,1949.29,2064.32,1950.34z"/>
		</g>
	</g>
</g>
</svg>
